<?xml version="1.0" encoding="UTF-8"?>
<!-- Generator: Adobe Illustrator 28.3.0, SVG Export Plug-In . SVG Version: 6.00 Build 0)  -->
<svg xmlns="http://www.w3.org/2000/svg" xmlns:xlink="http://www.w3.org/1999/xlink" version="1.1" id="Layer_1" x="0px" y="0px" viewBox="0 0 1080 1080" style="enable-background:new 0 0 1080 1080;" xml:space="preserve">
<style type="text/css">
	.st0{fill:#32302F;}
</style>
<g>
	<path class="st0" d="M196,656.9H60.9v-4.3c22.1,0,31.8-9.7,31.8-28.8V462.3c0-19.1-9.7-29.4-31.8-29.4v-4h121.7   c63.9,0,93.3,24.7,93.3,53.5c0,31.8-28.4,46.1-71.5,49.5c47.5,6,86.6,24.1,86.6,60.8C290.9,639.5,234.4,656.9,196,656.9z    M171.9,432.8h-12.7v97.3c1.3,0,11,0,11,0c27.4,0,40.1-9.7,40.1-49.5C210.4,447.2,199.7,432.8,171.9,432.8z M172.6,534.5   c0,0-10,0-13.4,0v92.3c0,20.1,7,26.1,19.7,26.1c26.1,0,41.1-15.4,41.1-60.2C220.1,548.9,206.3,534.5,172.6,534.5z"></path>
	<path class="st0" d="M382.9,660.9c-49.8,0-88.9-32.4-88.9-87.6c0-46.8,35.1-86.3,91.3-86.3c38.4,0,62.2,19.1,74.9,59.2l-109.7,16   c9.4,39.1,29.1,54.8,59.8,54.8c19.7,0,35.1-5.3,53.8-29.1l3.3,2C451.7,629.4,427,660.9,382.9,660.9z M369.5,492   c-16.4,0-21.1,25.1-21.1,45.8c0,9.4,1,16.7,1.3,20.4l50.5-7.7C400.3,513.1,386.2,492,369.5,492z"></path>
	<path class="st0" d="M530,660.9c-28.4,0-48.5-18.4-48.5-47.5V503.1H442c0,0,30.1-14,58.2-38.1c29.1-25.1,42.5-45.8,42.5-45.8V487   h42.5l-8,16h-34.4v99.6c0,21.7,11.7,32.4,28.8,32.4c7.7,0,13.4-2.3,20.1-4.7l1.3,3C569.4,650.8,549,660.9,530,660.9z"></path>
	<path class="st0" d="M637.6,660.9c-28.4,0-48.5-18.4-48.5-47.5V503.1h-39.5c0,0,30.1-14,58.2-38.1c29.1-25.1,42.5-45.8,42.5-45.8   V487h42.5l-8,16h-34.4v99.6c0,21.7,11.7,32.4,28.8,32.4c7.7,0,13.4-2.3,20.1-4.7l1.3,3C677.1,650.8,656.7,660.9,637.6,660.9z"></path>
	<path class="st0" d="M766,660.9c-49.8,0-88.9-32.4-88.9-87.6c0-46.8,35.1-86.3,91.3-86.3c38.4,0,62.2,19.1,74.9,59.2l-109.7,16   c9.4,39.1,29.1,54.8,59.8,54.8c19.7,0,35.1-5.3,53.8-29.1l3.3,2C834.9,629.4,810.1,660.9,766,660.9z M752.6,492   c-16.4,0-21.1,25.1-21.1,45.8c0,9.4,1,16.7,1.3,20.4l50.5-7.7C783.4,513.1,769.4,492,752.6,492z"></path>
	<path class="st0" d="M952.2,652.5v4.3h-114v-4.3c19.4,0,26.4-7.4,26.4-26.1v-86.3c0-18.7-7-26.1-26.4-26.1v-4.3   c0,0,19.1-3.3,44.5-11c25.7-8,41.5-15.4,41.5-15.4v49.1c8-24.1,26.1-49.5,48.8-49.5c17.7,0,31.1,12.7,31.1,29.8   c0,18.1-13.4,28.4-25.1,28.4c-21.1,0-26.4-24.1-36.4-24.1c-8,0-16.7,11-16.7,40.1v69.2C925.8,645.1,932.8,652.5,952.2,652.5z"></path>
	<path class="st0" d="M1019.1,628.1c0,18.1-15,32.8-33.1,32.8s-33.1-14.7-33.1-32.8s15-32.8,33.1-32.8S1019.1,610,1019.1,628.1z"></path>
</g>
</svg>
