<?xml version="1.0" encoding="utf-8"?>
<!-- Generator: Adobe Illustrator 28.3.0, SVG Export Plug-In . SVG Version: 6.00 Build 0)  -->
<svg version="1.1" id="Layer_1" xmlns="http://www.w3.org/2000/svg" xmlns:xlink="http://www.w3.org/1999/xlink" x="0px" y="0px"
	 viewBox="0 0 958.2 241.7" style="enable-background:new 0 0 958.2 241.7;" xml:space="preserve">
<style type="text/css">
	.st0{fill:#32302F;}
</style>
<g>
	<path class="st0" d="M135.1,237.8H0v-4.3c22.1,0,31.8-9.7,31.8-28.8V43.1C31.8,24,22.1,13.7,0,13.7v-4h121.7
		c63.9,0,93.3,24.7,93.3,53.5c0,31.8-28.4,46.1-71.5,49.5c47.5,6,86.6,24.1,86.6,60.8C230,220.4,173.5,237.8,135.1,237.8z M111,13.6
		H98.3v97.3c1.3,0,11,0,11,0c27.4,0,40.1-9.7,40.1-49.5C149.5,28.1,138.8,13.6,111,13.6z M111.7,115.3c0,0-10,0-13.4,0v92.3
		c0,20.1,7,26.1,19.7,26.1c26.1,0,41.1-15.4,41.1-60.2C159.2,129.8,145.4,115.3,111.7,115.3z"/>
	<path class="st0" d="M322,241.8c-49.8,0-88.9-32.4-88.9-87.6c0-46.8,35.1-86.3,91.3-86.3c38.4,0,62.2,19.1,74.9,59.2l-109.7,16
		c9.4,39.1,29.1,54.8,59.8,54.8c19.7,0,35.1-5.3,53.8-29.1l3.3,2C390.8,210.3,366.1,241.8,322,241.8z M308.6,72.8
		c-16.4,0-21.1,25.1-21.1,45.8c0,9.4,1,16.7,1.3,20.4l50.5-7.7C339.4,93.9,325.3,72.8,308.6,72.8z"/>
	<path class="st0" d="M469.1,241.8c-28.4,0-48.5-18.4-48.5-47.5V84h-39.5c0,0,30.1-14,58.2-38.1c29.1-25.1,42.5-45.8,42.5-45.8v67.8
		h42.5l-8,16h-34.4v99.6c0,21.7,11.7,32.4,28.8,32.4c7.7,0,13.4-2.3,20.1-4.7l1.3,3C508.5,231.6,488.1,241.8,469.1,241.8z"/>
	<path class="st0" d="M576.7,241.8c-28.4,0-48.5-18.4-48.5-47.5V84h-39.5c0,0,30.1-14,58.2-38.1C576,20.7,589.4,0.1,589.4,0.1v67.8
		h42.5l-8,16h-34.4v99.6c0,21.7,11.7,32.4,28.8,32.4c7.7,0,13.4-2.3,20.1-4.7l1.3,3C616.2,231.6,595.8,241.8,576.7,241.8z"/>
	<path class="st0" d="M705.1,241.8c-49.8,0-88.9-32.4-88.9-87.6c0-46.8,35.1-86.3,91.3-86.3c38.4,0,62.2,19.1,74.9,59.2l-109.7,16
		c9.4,39.1,29.1,54.8,59.8,54.8c19.7,0,35.1-5.3,53.8-29.1l3.3,2C774,210.3,749.2,241.8,705.1,241.8z M691.7,72.8
		c-16.4,0-21.1,25.1-21.1,45.8c0,9.4,1,16.7,1.3,20.4l50.5-7.7C722.5,93.9,708.5,72.8,691.7,72.8z"/>
	<path class="st0" d="M891.3,233.4v4.3h-114v-4.3c19.4,0,26.4-7.4,26.4-26.1V121c0-18.7-7-26.1-26.4-26.1v-4.3c0,0,19.1-3.3,44.5-11
		c25.7-8,41.5-15.4,41.5-15.4v49.1c8-24.1,26.1-49.5,48.8-49.5c17.7,0,31.1,12.7,31.1,29.8c0,18.1-13.4,28.4-25.1,28.4
		c-21.1,0-26.4-24.1-36.4-24.1c-8,0-16.7,11-16.7,40.1v69.2C864.9,225.9,871.9,233.4,891.3,233.4z"/>
	<path class="st0" d="M958.2,208.9c0,18.1-15,32.8-33.1,32.8S892,227,892,208.9s15-32.8,33.1-32.8S958.2,190.9,958.2,208.9z"/>
</g>
</svg>
